Coordinates
version=1
nRows=107
nColumns=6
inDegrees=yes

Units are S.I. units (second, meters, Newtons, ...)
If the header above contains a line with 'inDegrees', this indicates whether rotational values are in degrees (yes) or radians (no).

endheader
time	foot_tx	hip_flexion_r	knee_angle_r	ankle_angle_r	lumbar
     40.05000000	      0.25114535	     47.45755613	    -42.80881865	     10.29254766	    -33.20683221
     40.06000000	      0.25121301	     46.37823176	    -41.75837212	     10.06339019	    -32.86279418
     40.07000000	      0.25126744	     45.29812945	    -40.70179241	      9.83024835	    -32.50721151
     40.08000000	      0.25130905	     44.21765551	    -39.64043180	      9.59390852	    -32.14001882
     40.09000000	      0.25133842	     43.13830195	    -38.57595184	      9.35505779	    -31.76078370
     40.10000000	      0.25135690	     42.06271652	    -37.51028394	      9.11422297	    -31.36861508
     40.11000000	      0.25136617	     40.99430893	    -36.44569604	      8.87194041	    -30.96236420
     40.12000000	      0.25136806	     39.93671141	    -35.38475659	      8.62894406	    -30.54069215
     40.13000000	      0.25136435	     38.89400161	    -34.33035592	      8.38620312	    -30.10160827
     40.14000000	      0.25135661	     37.87052577	    -33.28550756	      8.14475261	    -29.64282303
     40.15000000	      0.25134616	     36.87088229	    -32.25321708	      7.90564065	    -29.16165527
     40.16000000	      0.25133368	     35.89626454	    -31.23586985	      7.67003344	    -28.65878408
     40.17000000	      0.25131767	     34.94463897	    -30.23613722	      7.43983036	    -28.13678071
     40.18000000	      0.25130414	     34.01727535	    -29.25493359	      7.21505002	    -27.59569652
     40.19000000	      0.25128787	     33.10707076	    -28.29394659	      6.99762452	    -27.04444597
     40.20000000	      0.25127211	     32.21243861	    -27.35436635	      6.78810538	    -26.48564925
     40.21000000	      0.25125892	     31.33201945	    -26.43734800	      6.58711369	    -25.92166185
     40.22000000	      0.25124817	     30.46374666	    -25.54417101	      6.39559303	    -25.35581678
     40.23000000	      0.25124760	     29.61638317	    -24.67543231	      6.21257989	    -24.77943427
     40.24000000	      0.25125203	     28.78757466	    -23.83301596	      6.03965703	    -24.19704896
     40.25000000	      0.25126233	     27.98260785	    -23.01828072	      5.87692624	    -23.60483024
     40.26000000	      0.25127709	     27.20553608	    -22.23268785	      5.72478815	    -23.00036736
     40.27000000	      0.25129627	     26.46154855	    -21.47696358	      5.58306941	    -22.37954574
     40.28000000	      0.25131827	     25.75124637	    -20.75094026	      5.45166562	    -21.74271386
     40.29000000	      0.25133973	     25.07012260	    -20.05425377	      5.33093521	    -21.09553693
     40.30000000	      0.25136683	     24.45537354	    -19.39062855	      5.21944521	    -20.40010538
     40.31000000	      0.25139289	     23.78621830	    -18.74335196	      5.11843881	    -19.78231535
     40.32000000	      0.25142422	     23.19713718	    -18.13404079	      5.02803298	    -19.10647405
     40.33000000	      0.25146322	     22.61620033	    -17.55216300	      4.94828007	    -18.44776474
     40.34000000	      0.25151103	     22.04598598	    -16.99696467	      4.87820798	    -17.80504501
     40.35000000	      0.25156772	     21.48884906	    -16.47009547	      4.81828879	    -17.17797621
     40.36000000	      0.25163140	     20.94778476	    -15.97017350	      4.76734706	    -16.56423786
     40.37000000	      0.25170112	     20.42518619	    -15.49446850	      4.72325262	    -15.96302665
     40.38000000	      0.25177377	     19.92021765	    -15.04179673	      4.68573590	    -15.37353984
     40.39000000	      0.25184979	     19.43361054	    -14.61112751	      4.65395336	    -14.79667605
     40.40000000	      0.25192786	     19.00865351	    -14.20680448	      4.62724920	    -14.18486854
     40.41000000	      0.25201617	     18.54163879	    -13.80764050	      4.60213000	    -13.64274214
     40.42000000	      0.25211116	     18.13216031	    -13.43435605	      4.58244065	    -13.06992973
     40.43000000	      0.25221905	     17.68776900	    -13.06444969	      4.56326349	    -12.55607472
     40.44000000	      0.25233726	     17.29510703	    -12.71706002	      4.54821012	    -12.01528354
     40.45000000	      0.25246394	     16.87090238	    -12.37166705	      4.53291911	    -11.52797236
     40.46000000	      0.25259690	     16.46214990	    -12.04073539	      4.52022171	    -11.04955764
     40.47000000	      0.25272908	     16.06591190	    -11.72271033	      4.50996003	    -10.58117982
     40.48000000	      0.25285787	     15.68180558	    -11.41785917	      4.50228228	    -10.12416223
     40.49000000	      0.25297897	     15.30738673	    -11.12327853	      4.49625712	     -9.67818309
     40.50000000	      0.25309339	     14.94321138	    -10.83849484	      4.49118194	     -9.24421193
     40.51000000	      0.25319686	     14.62480309	    -10.56912923	      4.48739356	     -8.78626265
     40.52000000	      0.25328512	     14.27153741	    -10.29745719	      4.48205899	     -8.38379577
     40.53000000	      0.25335604	     13.93279795	    -10.03179755	      4.47614830	     -7.98595285
     40.54000000	      0.25340293	     13.64375263	     -9.77783400	      4.47101095	     -7.55390744
     40.55000000	      0.25342838	     13.31504770	     -9.51556024	      4.46294258	     -7.17633056
     40.56000000	      0.25343068	     12.99876803	     -9.25572182	      4.45398894	     -6.79929484
     40.57000000	      0.25340728	     12.72917032	     -9.00431015	      4.44504783	     -6.38681134
     40.58000000	      0.25336499	     12.41881357	     -8.74601140	      4.43397150	     -6.02849656
     40.59000000	      0.25330388	     12.15189964	     -8.49888448	      4.42393714	     -5.63975789
     40.60000000	      0.25323122	     11.85390533	     -8.24509777	      4.41086177	     -5.29510000
     40.61000000	      0.25314844	     11.60269057	     -8.00801518	      4.40115420	     -4.91812982
     40.62000000	      0.25306225	     11.31777660	     -7.76678758	      4.39007717	     -4.58669177
     40.63000000	      0.25298278	     11.07999419	     -7.54279422	      4.38178675	     -4.22490565
     40.64000000	      0.25290000	     10.80868751	     -7.31769071	      4.37460777	     -3.90570433
     40.65000000	      0.25282435	     10.58207110	     -7.10645443	      4.36953036	     -3.55357030
     40.66000000	      0.25275333	     10.32159438	     -6.89523413	      4.36532783	     -3.24746211
     40.67000000	      0.25268597	     10.10639441	     -6.69794353	      4.36336840	     -2.90728930
     40.68000000	      0.25261930	      9.85612957	     -6.49989469	      4.36189910	     -2.61465056
     40.69000000	      0.25255353	      9.65122070	     -6.31643344	      4.36263730	     -2.29006680
     40.70000000	      0.25248668	      9.41171783	     -6.13241592	      4.36355225	     -2.01453669
     40.71000000	      0.25241520	      9.21712604	     -5.96468719	      4.36761702	     -1.70902643
     40.72000000	      0.25234335	      8.98956925	     -5.79414906	      4.37045268	     -1.45060515
     40.73000000	      0.25226541	      8.77502199	     -5.63180611	      4.37473774	     -1.19290788
     40.74000000	      0.25218066	      8.56690340	     -5.47431340	      4.37943497	     -0.94072245
     40.75000000	      0.25208714	      8.35904196	     -5.31929752	      4.38406323	     -0.69877205
     40.76000000	      0.25198047	      8.15512380	     -5.16537305	      4.38825003	     -0.46026425
     40.77000000	      0.25186734	      7.95175262	     -5.01205305	      4.39112754	     -0.23084959
     40.78000000	      0.25173653	      7.74726753	     -4.85630613	      4.39264629	     -0.00708457
     40.79000000	      0.25158666	      7.53941260	     -4.69495060	      4.39163743	      0.21180594
     40.80000000	      0.25141983	      7.33022012	     -4.53174417	      4.38870724	      0.41910002
     40.81000000	      0.25123291	      7.11712172	     -4.36015719	      4.38223577	      0.62446059
     40.82000000	      0.25102078	      6.86103164	     -4.17562831	      4.37241189	      0.78183805
     40.83000000	      0.25078318	      6.64894850	     -3.98948289	      4.35949913	      0.98630534
     40.84000000	      0.25052161	      6.37734460	     -3.78862202	      4.34376153	      1.12642823
     40.85000000	      0.25023878	      6.12547385	     -3.58364537	      4.32506075	      1.28631913
     40.86000000	      0.24993230	      5.86841448	     -3.37303723	      4.30439733	      1.43802899
     40.87000000	      0.24961270	      5.60733811	     -3.16002829	      4.28273122	      1.58012496
     40.88000000	      0.24928179	      5.34511297	     -2.94761699	      4.26115505	      1.71250920
     40.89000000	      0.24895115	      5.08472878	     -2.73986646	      4.24076762	      1.83545395
     40.90000000	      0.24862440	      4.82788976	     -2.54066357	      4.22344784	      1.94856814
     40.91000000	      0.24831868	      4.58111044	     -2.35641599	      4.21097193	      2.05451937
     40.92000000	      0.24803985	      4.34706038	     -2.18875606	      4.20370167	      2.15469835
     40.93000000	      0.24780228	      4.13121581	     -2.04291765	      4.20313685	      2.25111271
     40.94000000	      0.24761553	      3.93812584	     -1.92187210	      4.20982979	      2.34649477
     40.95000000	      0.24748829	      3.79542737	     -1.83048497	      4.22375446	      2.46870441
     40.96000000	      0.24742064	      3.63613702	     -1.76116136	      4.24458019	      2.54082100
     40.97000000	      0.24741497	      3.53246825	     -1.72184753	      4.27153865	      2.64256201
     40.98000000	      0.24746550	      3.44690759	     -1.70517553	      4.30328859	      2.73368200
     40.99000000	      0.24756351	      3.40289315	     -1.71136157	      4.33877017	      2.84116536
     41.00000000	      0.24769888	      3.37206192	     -1.73052461	      4.37562432	      2.94012292
     41.01000000	      0.24786555	      3.35136481	     -1.75338578	      4.41011225	      3.03535221
     41.02000000	      0.24803460	      3.34980524	     -1.79149939	      4.44855150	      3.12815479
     41.03000000	      0.24821122	      3.34825755	     -1.82452235	      4.48240271	      3.21344963
     41.04000000	      0.24838142	      3.34776157	     -1.85445017	      4.51320423	      3.29118209
     41.05000000	      0.24853666	      3.31395148	     -1.87293594	      4.53958655	      3.32818715
     41.06000000	      0.24866806	      3.33776173	     -1.89686196	      4.56441773	      3.41962933
     41.07000000	      0.24877538	      3.30878138	     -1.90698205	      4.58528510	      3.44988405
     41.08000000	      0.24886982	      3.28571576	     -1.90529542	      4.59938177	      3.49008810
     41.09000000	      0.24893155	      3.26152442	     -1.90379823	      4.61395189	      3.52346829
     41.10000000	      0.24896928	      3.23270796	     -1.89598778	      4.62601414	      3.55275544
     41.11000000	      0.24899019	      3.19911889	     -1.88170853	      4.63529794	      3.57934420
